<?xml version="1.0" encoding="UTF-8" standalone="no"?>
<svg width="94px" height="28px" viewBox="0 0 94 28" version="1.1" xmlns="http://www.w3.org/2000/svg" xmlns:xlink="http://www.w3.org/1999/xlink">
    <!-- Generator: Sketch 44.1 (41455) - http://www.bohemiancoding.com/sketch -->
    <title>logo/og/DBS-blk Copy</title>
    <desc>Created with Sketch.</desc>
    <defs></defs>
    <g id="Page-1" stroke="none" stroke-width="1" fill="none" fill-rule="evenodd">
        <g id="Group-3-Copy" transform="translate(-24.000000, -66.000000)">
            <g id="logo/og/DBS-blk" transform="translate(24.000000, 66.000000)">
                <g>
                    <g id="Logomark">
                        <polygon id="Fill-1" fill="#FFFFFF" points="4.45698 22.731 22.34034 22.731 22.34034 4.667 4.45698 4.667"></polygon>
                        <path d="M21.75624,22.164 L15.26679,16.667 C15.26679,16.667 14.38767,15.8 13.40163,15.8 C12.40569,15.8 11.52657,16.667 11.52657,16.667 L5.0391,22.164 L5.01831,22.145 L10.46133,15.59 C10.46133,15.59 11.31768,14.705 11.31768,13.697 C11.31768,12.699 10.46133,11.813 10.46133,11.813 L5.01831,5.253 L5.0391,5.23 L11.52657,10.733 C11.52657,10.733 12.40569,11.602 13.40163,11.602 C14.38767,11.602 15.26679,10.733 15.26679,10.733 L21.75624,5.23 L21.78297,5.259 L16.32906,11.813 C16.32906,11.813 15.47865,12.699 15.47865,13.697 C15.47865,14.705 16.32906,15.59 16.32906,15.59 L21.78297,22.143 L21.75624,22.164 Z M24.79257,13.697 L24.79257,13.695 C24.79257,11.918 24.86385,10.325 26.16867,7.527 C26.54586,6.713 27.38043,5.527 26.15085,4.143 C25.15194,3.137 24.0174,3.302 23.25312,3.747 C23.69268,2.975 23.85603,1.824 22.85811,0.814 C21.48894,-0.424 20.31084,0.417 19.50894,0.8 C16.73595,2.121 15.1668,2.194 13.40163,2.194 C11.62953,2.194 10.0584,2.121 7.29135,0.8 C6.48549,0.417 5.30244,-0.424 3.93723,0.814 C2.93931,1.824 3.10761,2.975 3.54717,3.747 C2.78091,3.3 1.64439,3.137 0.64449,4.143 C-0.5841,5.527 0.25443,6.713 0.62469,7.527 C1.93743,10.325 2.0097,11.918 2.0097,13.697 C2.0097,15.481 1.93743,17.078 0.62469,19.874 C0.25443,20.682 -0.5841,21.876 0.64449,23.259 C1.64439,24.262 2.78091,24.096 3.54717,23.656 C3.10761,24.43 2.93931,25.578 3.93723,26.578 C5.30244,27.825 6.48549,26.982 7.29135,26.599 C10.06038,25.279 11.62953,25.209 13.40163,25.209 C15.1668,25.209 16.73595,25.279 19.50795,26.599 C20.31084,26.982 21.48894,27.825 22.85811,26.578 C23.85603,25.578 23.68872,24.43 23.25114,23.656 C24.0174,24.096 25.15194,24.268 26.15085,23.259 C27.38043,21.876 26.54586,20.682 26.16867,19.874 C24.86385,17.074 24.79257,15.481 24.79257,13.697 L24.79257,13.697 Z" fill="#FF3333"></path>
                    </g>
                    <path d="M45.96471,24.186 C48.18924,23.381 50.94243,19.547 50.48604,13.509 C50.04648,7.668 47.84175,3.079 41.97105,2.648 C41.97105,2.648 40.85928,2.567 39.92769,2.563 C38.92878,2.556 38.71494,2.522 38.64069,3.6 C38.51298,5.617 38.47635,21.326 38.60406,23.593 C38.61891,23.904 38.65257,24.65 39.93363,24.781 C42.27597,25.01 44.2134,24.826 45.96471,24.186 Z M43.69365,1.653 C48.66147,1.63 55.19844,5.07 55.1727,13.664 C55.15587,21.139 49.81185,25.743 44.8767,25.743 L32.34429,25.746 L32.36013,25.479 C33.06501,25.352 33.85701,24.908 33.98868,24.434 C34.40349,22.633 34.30944,6.155 34.05798,3.441 C33.97878,2.592 33.31548,2.045 32.51061,1.911 L32.48586,1.653 C32.48586,1.653 42.58089,1.659 43.69365,1.653 Z M71.1711,19.838 C71.2701,14.661 67.51305,13.288 63.62235,13.073 C63.54117,13.067 63.57186,12.873 63.63225,12.863 C64.89648,12.812 69.92271,12.224 69.71877,7.374 C69.51483,2.648 65.96568,2.542 64.66779,2.522 C63.60849,2.508 63.37782,2.508 62.93034,2.53 C62.17695,2.563 61.98885,2.619 61.99281,3.445 C61.99281,3.55 61.82748,11.959 61.72848,17.871 C61.68195,21.084 61.66908,23.558 61.66908,23.558 C61.68789,24.147 61.61562,24.744 63.05112,24.812 C64.53315,24.885 66.44385,24.947 67.78134,24.66 C69.00597,24.396 71.08794,23.49 71.1711,19.838 Z M69.63363,12.878 C75.4776,14.341 75.83004,18.602 75.74886,19.8 C75.48156,25.135 71.0028,25.746 69.19902,25.746 L55.41228,25.746 L55.42812,25.477 C56.43,25.338 57.18141,24.784 57.18141,23.006 L57.26259,4.633 C57.28536,2.641 56.7666,2.032 55.67463,1.902 L55.64988,1.653 L66.07458,1.653 C67.98825,1.653 73.75104,1.269 74.24208,6.62 C74.63214,10.902 69.97419,12.691 69.63363,12.878 Z M92.11356,1.726 L92.35017,1.724 L92.43135,6.017 L92.17098,6.015 C91.75221,4.267 90.08901,2.619 86.7537,2.447 C82.81449,2.238 81.11169,4.609 81.08595,6.853 C81.06318,9.835 83.36691,10.451 86.77944,11.292 C88.3872,11.689 94.34502,12.474 93.86784,19.236 C93.53718,23.959 89.49996,26.205 83.7837,26.027 C83.7837,26.027 81.40869,25.947 78.0912,25.018 C77.4774,24.842 77.31405,25.051 77.06754,25.508 L76.79628,25.522 L76.80519,20.893 L77.06754,20.906 C77.19822,21.375 77.23485,22.248 78.07635,22.988 C78.68916,23.534 80.12961,24.882 83.2887,24.917 C86.38938,24.959 88.95942,23.637 89.30394,20.123 C89.39799,19.178 89.29899,17.015 87.20811,16.029 C85.57263,15.257 81.0315,14.748 78.83073,12.799 C78.83073,12.799 76.2201,10.962 76.63194,7.533 C77.2101,2.687 81.21465,1.475 84.81231,1.401 C84.81231,1.401 88.0308,1.369 90.5949,2.038 C90.5949,2.038 91.22256,2.21 91.74231,2.01 C91.95318,1.939 92.05218,1.806 92.11356,1.726 L92.11356,1.726 Z" id="DBS" fill="#000000"></path>
                </g>
            </g>
        </g>
    </g>
</svg>