<?xml version="1.0" encoding="utf-8"?>
<!-- Generator: Adobe Illustrator 14.0.0, SVG Export Plug-In . SVG Version: 6.00 Build 43363)  -->
<!DOCTYPE svg PUBLIC "-//W3C//DTD SVG 1.1//EN" "http://www.w3.org/Graphics/SVG/1.1/DTD/svg11.dtd">
<svg version="1.1" id="Layer_1" xmlns="http://www.w3.org/2000/svg" xmlns:xlink="http://www.w3.org/1999/xlink" x="0px" y="0px"
	 width="316" height="316" viewBox="0 0 500 500" enable-background="new 0 0 500 500" xml:space="preserve">
<path fill="#A08030" d="M147.834,367.044c25.31,13.516,51.8,23.451,74.188,28.201l-32.412,19.838
	c-32.245-10.715-63.473-28.831-88.589-48.039H147.834 M398.992,367.044c-25.103,19.208-56.33,37.324-88.651,48.039l-32.41-19.838
	c22.385-4.75,48.863-14.686,74.185-28.188L398.992,367.044z M191.68,420.284c19.63,6.245,39.829,9.798,58.288,9.798
	c18.522,0,38.66-3.538,58.274-9.798v29.786c-15.613,7.136-36.006,11.867-58.274,11.867c-22.192,0-42.6-4.748-58.288-11.867V420.284z
	"/>
<path fill="#A08030" d="M100.993,367.044c-13.217-10.114-24.741-20.574-33.821-30.36v-35.138
	c17.815,25.294,48.309,48.28,80.663,65.526L100.993,367.044 M352.105,367.044c32.32-17.202,62.812-40.188,80.646-65.498v35.138
	c-9.051,9.786-20.544,20.23-33.76,30.36H352.105z"/>
<path fill="none" stroke="#A18539" stroke-width="0.048" stroke-miterlimit="3.864" d="M191.68,420.284
	c19.63,6.245,39.829,9.798,58.288,9.798c18.522,0,38.66-3.538,58.274-9.798v29.786c-15.613,7.136-36.006,11.867-58.274,11.867
	c-22.192,0-42.6-4.748-58.288-11.867V420.284z"/>
<path fill="none" stroke="#A18539" stroke-width="0.048" stroke-miterlimit="3.864" d="M67.172,319.453v-17.907
	C99,346.649,171.074,384.471,222.038,395.245l-32.412,19.838c-49.223-16.363-96.155-50.019-122.438-78.399v-17.23H67.172z"/>
<path fill="none" stroke="#A18539" stroke-width="0.048" stroke-miterlimit="3.864" d="M432.763,336.684
	c-26.224,28.396-73.078,62.036-122.422,78.384l-32.41-19.822c50.946-10.79,123.021-48.596,154.847-93.699v35.138H432.763z"/>
<path fill="#253B76" d="M393.399,334.691v-30.149l-28.962,43.605c-2.461,3.716-4.078,6.774-5.066,9.979
	C371.285,351.204,382.715,343.41,393.399,334.691"/>
<path fill="none" stroke="#253B76" stroke-width="0.114" stroke-miterlimit="3.864" d="M393.399,334.691v-30.149l-28.962,43.605
	c-2.461,3.716-4.078,6.774-5.066,9.979C371.285,351.204,382.715,343.41,393.399,334.691z"/>
<path fill="#253B76" d="M274.813,424.073c10.638-1.586,17.606-3.641,29.385-7.373l-29.385-18.191V424.073"/>
<path fill="none" stroke="#253B76" stroke-width="0.114" stroke-miterlimit="3.864" d="M274.813,424.073
	c10.638-1.586,17.606-3.641,29.385-7.373l-29.385-18.191V424.073z"/>
<path fill="#253B76" d="M225.258,398.524l-29.459,18.191c11.779,3.717,18.748,5.797,29.459,7.373V398.524"/>
<path fill="none" stroke="#253B76" stroke-width="0.114" stroke-miterlimit="3.864" d="M225.258,398.524l-29.459,18.191
	c11.779,3.717,18.748,5.797,29.459,7.373V398.524z"/>
<path fill="#253B76" d="M393.461,376.528l-4.51,3.177c-9.788,6.786-20.199,13.289-31.048,19.257v12.347
	c0,0,19.612-12.558,28.592-18.88c5.391-3.867,6.605-7.346,6.904-12.708L393.461,376.528"/>
<path fill="none" stroke="#253B76" stroke-width="0.114" stroke-miterlimit="3.864" d="M393.461,376.528l-4.51,3.177
	c-9.788,6.786-20.199,13.289-31.048,19.257v12.347c0,0,19.612-12.558,28.592-18.88c5.391-3.867,6.605-7.346,6.904-12.708
	L393.461,376.528z"/>
<path fill="#253B76" d="M102.444,331.229l0.016-33.158l-31.408,0.074C80.284,310.326,90.877,321.341,102.444,331.229"/>
<path fill="none" stroke="#253B76" stroke-width="0.114" stroke-miterlimit="3.864" d="M102.444,331.229l0.016-33.158l-31.408,0.074
	C80.284,310.326,90.877,321.341,102.444,331.229z"/>
<path fill="#253B76" d="M140.657,358.142c-0.989-3.207-2.608-6.278-5.005-9.994l-29.04-43.621v30.196
	C117.296,343.426,128.729,351.219,140.657,358.142"/>
<path fill="none" stroke="#253B76" stroke-width="0.114" stroke-miterlimit="3.864" d="M140.657,358.142
	c-0.989-3.207-2.608-6.278-5.005-9.994l-29.04-43.621v30.196C117.296,343.426,128.729,351.219,140.657,358.142z"/>
<path fill="#253B76" d="M106.535,376.47l0.136,3.235c0.165,5.365,1.453,8.842,6.833,12.692c8.916,6.322,28.604,18.881,28.604,18.881
	V398.9c-10.818-5.947-21.231-12.452-31.001-19.211L106.535,376.47"/>
<path fill="none" stroke="#253B76" stroke-width="0.114" stroke-miterlimit="3.864" d="M106.535,376.47l0.136,3.235
	c0.165,5.365,1.453,8.842,6.833,12.692c8.916,6.322,28.604,18.881,28.604,18.881V398.9c-10.818-5.947-21.231-12.452-31.001-19.211
	L106.535,376.47z"/>
<path fill="#253B76" d="M397.478,298.07v33.204c11.579-9.918,22.19-20.919,31.464-33.13L397.478,298.07"/>
<path fill="none" stroke="#253B76" stroke-width="0.114" stroke-miterlimit="3.864" d="M397.478,298.07v33.204
	c11.579-9.918,22.19-20.919,31.464-33.13L397.478,298.07z"/>
<path fill="#A08030" d="M108.708,212.777c0,71.476,62.727,139.971,141.259,162.403c78.686-22.432,141.408-90.927,141.408-162.403
	V40.171H108.708V212.777"/>
<path fill="none" stroke="#A18539" stroke-width="0.077" stroke-miterlimit="3.864" d="M108.708,212.777
	c0,71.476,62.727,139.971,141.259,162.403c78.686-22.432,141.408-90.927,141.408-162.403V40.171H108.708V212.777z"/>
<path fill="#171717" d="M432.752,301.562c-31.814,45.104-103.891,82.909-154.836,93.699l32.412,19.822
	c49.356-16.348,96.201-50.003,122.424-78.384V301.562 M274.813,424.073c10.638-1.57,17.622-3.641,29.399-7.357l-29.399-18.191
	V424.073z M225.258,398.524l-29.459,18.191c11.779,3.717,18.748,5.797,29.459,7.357V398.524z M67.172,336.699
	c26.298,28.411,73.215,62.036,122.438,78.384l32.412-19.822c-50.948-10.79-123.037-48.596-154.85-93.699V336.699z M191.68,450.07
	c15.673,7.15,36.096,11.867,58.275,11.867c22.281,0,42.674-4.731,58.287-11.867v-29.786c-19.614,6.245-39.752,9.798-58.287,9.798
	c-18.446,0-38.645-3.538-58.275-9.798V450.07z M393.461,376.497l-4.51,3.208c-9.788,6.773-20.215,13.289-31.048,19.241v12.348
	c0,0,19.612-12.559,28.592-18.881c5.391-3.852,6.605-7.343,6.904-12.692L393.461,376.497z M102.444,331.229l0.016-33.158
	l-31.421,0.074C80.284,310.342,90.863,321.341,102.444,331.229z M140.642,358.142c-0.974-3.207-2.592-6.278-5.005-9.994
	l-29.024-43.605v30.181C117.296,343.426,128.729,351.219,140.642,358.142z M106.535,376.47l0.136,3.235
	c0.165,5.365,1.453,8.842,6.833,12.692c8.916,6.322,28.604,18.881,28.604,18.881V398.9c-10.818-5.947-21.231-12.452-31.001-19.211
	L106.535,376.47z M397.478,298.07v33.204c11.579-9.918,22.19-20.919,31.464-33.13L397.478,298.07z M355.086,360.554
	c0.464-5.425,2.38-9.903,6.622-16.886c6.111-9.875,33.7-49.989,33.7-49.989h41.612v44.864
	c-10.159,11.134-23.689,23.239-39.322,34.853c0,0,0,5.471-0.164,6.294c-0.479,8.092-3.084,12.347-7.672,15.556
	c-6.605,4.525-19.524,13.727-35.929,22.953v-17.125c-13.413,7.085-27.423,13.273-41.539,17.938v33.637
	c-17.308,7.898-36.562,13.007-62.439,13.007c-25.729,0-45.104-5.108-62.354-13.007v-33.637
	c-14.115-4.69-28.153-10.879-41.595-18.016v17.202c-16.319-9.242-29.191-18.428-35.858-22.953
	c-4.617-3.209-7.284-7.448-7.688-15.556l-0.09-6.248c-15.704-11.645-29.205-23.78-39.362-34.898v-44.864h41.672
	c0,0,27.585,40.114,33.699,49.989c4.24,7.072,6.13,11.599,6.969,17.109c13.171,7.33,26.941,13.609,40.892,18.912
	c14.219,5.44,28.664,9.904,42.975,13.367v31.438c6.594,0.598,15.375,1.364,20.753,1.364c5.411,0,14.161-0.767,20.845-1.364v-31.438
	c14.296-3.476,28.739-7.942,42.96-13.367C327.859,374.355,341.751,367.986,355.086,360.554z M393.399,334.691v-30.149
	l-28.962,43.605c-2.461,3.716-4.078,6.774-5.066,9.979C371.285,351.204,382.715,343.41,393.399,334.691z"/>
<path fill="#171717" d="M108.708,212.777c0,71.476,62.727,139.971,141.259,162.403c78.686-22.432,141.408-90.927,141.408-162.403
	V40.184H108.708V212.777 M395.47,213.827c0,73.481-66.111,143.985-145.502,165.816c-79.252-21.831-145.363-92.335-145.363-165.816
	V35.9H395.47V213.827z"/>
<path fill="#FFFFFF" d="M249.968,220.958c9.859,0,9.052-3.715,15.601-3.715h33.205v-61.781l-3.882-2.863h-89.771l-3.957,2.863
	v61.781h33.28C240.978,217.243,240.108,220.958,249.968,220.958"/>
<path fill="none" stroke="#253B76" stroke-width="0.077" stroke-miterlimit="3.864" d="M173.651,199.485h6.534
	c0-2.095-1.573-3.625-3.506-3.625C174.745,195.86,173.651,197.402,173.651,199.485z"/>
<path fill="none" stroke="#253B76" stroke-width="0.077" stroke-miterlimit="3.864" d="M180.185,172.59l-6.534-0.239
	c0,2.247,1.082,3.789,3.013,3.789C178.627,176.155,180.185,174.611,180.185,172.59z"/>
<path fill="none" stroke="#253B76" stroke-width="0.077" stroke-miterlimit="3.864" d="M180.185,167.989
	c0-1.934-1.573-3.611-3.506-3.611c-1.933,0-3.012,1.678-3.012,3.611H180.185z"/>
<path fill="none" stroke="#253B76" stroke-width="0.077" stroke-miterlimit="3.864" d="M197.763,207.802h-15.194
	c-1.004,2.024-3.448,3.357-5.891,3.357c-3.521,0-6.608-3.058-6.608-6.774c-2.292-0.599-3.174-1.544-3.174-2.741
	c0-1.185,0.883-2.16,2.037-2.16c1.137-4.225,4.211-7.296,7.746-7.296c2.667,0,4.961,1.723,5.891,4.091h15.088l-0.181-19.916h-14.923
	c-1.004,1.858-3.448,3.282-5.89,3.282c-3.52,0-6.606-2.965-6.606-6.624c-2.293-0.671-3.177-1.691-3.177-2.742
	c0-1.333,0.884-2.307,2.021-2.307c1.156-4.15,4.227-7.208,7.762-7.208c2.667,0,4.96,1.634,5.89,4.075h14.833l-0.103-12.316
	l4.045-2.788c-23.254-5.723-39.124-17.47-51.112-38.75v148.679c11.448-20.305,26.478-32.129,47.637-38.197L197.763,207.802z"/>
<path fill="none" stroke="#253B76" stroke-width="0.077" stroke-miterlimit="3.864" d="M180.185,203.802h-6.534
	c0,2.248,1.082,3.954,3.013,3.954c1.948,0,3.505-1.707,3.505-3.7v-0.254H180.185z"/>
<path fill="#171717" d="M187.828,410.306l0.239,0.792l3.955,1.633l-0.777-2.425H187.828 M238.805,437.815l3.447,9.813l-7.044-0.447
	L238.805,437.815z M227.912,456.069l4.15,0.221l2.188-5.782l9.034,0.659l2.294,6.174l4.166,0.281l-8.826-23.298l-4.152-0.314
	L227.912,456.069z M271.53,440.782c-0.568-4.903-4.734-7.432-9.754-7.193c-6.816,0.421-10.774,6.008-10.774,12.588
	c0.15,6.386,4.315,11.595,11.136,11.164c5.526-0.331,9.318-4.243,9.527-9.727l-3.865,0.282c-0.285,3.208-2.219,6.024-5.815,6.251
	c-4.867,0.283-6.966-3.939-6.966-8.243c-0.059-4.386,1.875-8.764,6.758-9.047c3.372-0.242,5.02,1.602,5.738,4.135L271.53,440.782z"
	/>
<path fill="#171717" d="M191.245,410.306l-7.343-23.108l-3.656-1.408l-8.333,19.362l4.031,1.586l2.099-5.499l8.016,3.265
	l1.769,5.817h3.417 M358.666,370.563l5.591-3.251c1.798-1.048,2.889-0.734,2.889,1.482c0,1.921-1.287,3.777-2.889,4.766
	l-5.591,3.103V370.563z M358.666,379.479l6.039-3.415c2.008-1.184,3.295-0.66,3.295,1.559c0,2.157-1.287,4.165-3.295,5.274
	l-6.039,3.507V379.479z M342.168,379.854l3.311,8.15l-6.245,2.832L342.168,379.854z M380.198,357.437
	c3.506-3.507,5.664-1.437,6.385,2.16c0.643,3.476-0.212,8.526-3.806,12.017c-3.733,3.491-5.875,1.408-6.462-2.309
	C375.6,365.829,376.47,360.931,380.198,357.437z M395.361,347.414l5.098-3.926c1.616-1.26,3.074-1.993,3.074,0.809
	c0,2.231-1.066,4.24-3.014,5.934l-5.158,3.867V347.414z M182.028,390.523l3.012,10.565l-6.099-2.533L182.028,390.523z
	 M355.221,391.573l8.975-5.185c5.153-2.742,7.239-6.758,7.239-10.324c0-2.968-1.365-4.302-3.718-3.567
	c1.781-1.993,2.801-4.196,2.801-6.383c0-3.717-2.291-4.152-5.812-2.219l-9.469,5.409v22.269H355.221z M332.756,402.932l3.944-1.843
	l1.72-6.776l8.182-3.774l2.43,4.769l3.656-1.709l-9.186-18.238l-3.733,1.679L332.756,402.932z M315.256,409.687l15.122-6.142v-3.43
	l-11.315,4.598v-18.85l-3.807,1.573V409.687z M379.554,354.682c-5.107,4.915-7.177,12.272-6.174,17.606
	c0.942,5.335,4.811,6.817,9.846,1.934c5.098-4.917,7.372-12.183,6.399-17.366C388.59,351.428,384.708,349.87,379.554,354.682z
	 M392.199,367.598l3.162-2.443v-8.825l4.665-3.717c2.873-2.143,3.507-1.049,3.507,2.983c0,0.942,0,2.217,0.493,2.801l3.399-2.593
	c-0.659-0.359-0.959-2.455-0.959-4.974c0-3.416-1.575-3.042-2.65-2.368c0.564-0.749,2.919-3.761,2.919-7.806
	c0-3.702-2.008-4.196-5.962-1.168l-8.6,6.815v21.294H392.199z M409.839,353.349l11.493-10.534v-3.342l-8.675,8v-6.234l7.896-7.19
	v-3.043l-7.896,7.208v-5.561l8.464-7.97v-3.193l-11.266,10.327v21.532H409.839z M75.159,334.271
	c0.075,5.499,2.878,10.025,6.323,12.48c2.924,2.07,5.875,2.22,5.875-2.741c0-2.307-0.988-5.574-2.938-7.731
	c-0.792-0.957-4.091-4.525-4.284-4.886c-1.019-1.197-1.725-2.605-1.725-4.166c0-2.142,1.424-1.679,2.714-0.942
	c1.796,1.334,3.027,3.342,3.162,6.383l2.591,1.784c0-4.632-2.591-8.903-5.753-11.209c-2.714-1.934-5.381-1.723-5.381,2.593
	c0,2.381,0.796,5.259,3.313,8.016l4.449,5.049c0.646,0.812,1.215,1.934,1.215,3.612c0,1.784-0.944,2.847-3.161,1.051
	c-2.07-1.409-3.808-3.927-3.808-7.433L75.159,334.271z M103.66,349.047c-0.345-4.885-3.072-9.574-6.743-11.869
	c-4.797-3.04-7.597,0.451-7.597,6.742c0,6.385,2.8,13.517,7.597,16.544c3.879,2.443,6.605,0.51,6.743-4.675l-2.742-1.781
	c-0.137,3.13-1.56,4.914-4.017,3.204c-3.357-2.142-4.886-7.267-4.886-11.507c0-4.197,1.544-7.566,4.886-5.334
	c2.291,1.482,3.445,4.075,3.955,6.981L103.66,349.047z M106.971,367.507l3.236,2.248v-21.818l-3.236-2.247V367.507z
	 M113.355,372.363l12.991,8.75v-3.432l-9.904-6.608v-6.519l9.124,5.935v-3.192l-9.124-5.932v-5.875l9.77,6.533v-3.431l-12.856-8.393
	V372.363z M129.942,383.196l3.298,2.067v-16.469l8.331,21.445l3.37,2.008v-22.553l-2.935-1.725v16.484l-8.408-21.309l-3.641-2.173
	v22.223H129.942z M148.373,374.881l5.739,2.875v18.643l3.733,2.157v-18.627l5.978,2.878v-3.416l-15.449-7.793V374.881z
	 M166.896,402.689l3.715,1.71v-21.818l-3.715-1.781V402.689z"/>
<path fill="#253B76" d="M282.681,147.909c3.671-30.389,15.163-50.376,39.229-64.688H178.118
	c23.96,14.296,35.437,34.224,39.77,64.585c4.613-0.886,9.798-2.129,16.137-2.129c7.926,0,13.44,2.697,15.959,7.644
	c1.948-4.946,8.047-7.644,16.018-7.644C272.595,145.677,277.931,147.054,282.681,147.909"/>
<path fill="none" stroke="#253B76" stroke-width="0.077" stroke-miterlimit="3.864" d="M282.681,147.909
	c3.671-30.389,15.163-50.376,39.229-64.688H178.118c23.96,14.296,35.437,34.224,39.77,64.585c4.613-0.886,9.798-2.129,16.137-2.129
	c7.926,0,13.44,2.697,15.959,7.644c1.948-4.946,8.047-7.644,16.018-7.644C272.595,145.677,277.931,147.054,282.681,147.909z"/>
<path fill="#253B76" d="M302.249,221.483c21.175,6.068,36.202,17.893,47.622,38.196V111.001
	c-12.095,21.579-28.247,33.326-50.948,38.977l3.792,2.561v12.257h19.059c4.946,0,8.166,0.973,8.166,5.125
	c0,4.899-2.516,6.457-7.116,6.457H302.7v19.945h19.058c4.946,0,8.166,0.885,8.166,5.125c0,4.796-2.516,6.382-7.115,6.382h-20.124
	v13.668h-0.436"/>
<path fill="none" stroke="#253B76" stroke-width="0.077" stroke-miterlimit="3.864" d="M302.249,221.483
	c21.175,6.068,36.202,17.893,47.622,38.196V111.001c-12.095,21.579-28.247,33.326-50.948,38.977l3.792,2.561v12.257h19.059
	c4.946,0,8.166,0.973,8.166,5.125c0,4.899-2.516,6.457-7.116,6.457H302.7v19.945h19.058c4.946,0,8.166,0.885,8.166,5.125
	c0,4.796-2.516,6.382-7.115,6.382h-20.124v13.668h-0.436V221.483z"/>
<path fill="#253B76" d="M221.002,221.483l-2.757,0.313c-4.029,31.918-15.479,52.913-40.144,67.716h143.792
	c-24.725-14.803-36.173-35.77-39.574-67.61l-3.251-0.419h-13.366c-6.699,0-5.891,3.342-15.748,3.342
	c-9.833,0-8.978-3.342-15.511-3.342H221.002"/>
<path fill="none" stroke="#253B76" stroke-width="0.077" stroke-miterlimit="3.864" d="M221.002,221.483l-2.757,0.313
	c-4.029,31.918-15.479,52.913-40.144,67.716h143.792c-24.725-14.803-36.173-35.77-39.574-67.61l-3.251-0.419h-13.366
	c-6.699,0-5.891,3.342-15.748,3.342c-9.833,0-8.978-3.342-15.511-3.342H221.002z"/>
<path fill="#253B76" d="M180.185,203.802h-6.534c0,2.248,1.082,3.925,3.013,3.925c1.948,0,3.505-1.678,3.505-3.686v-0.239
	 M197.763,207.802h-15.194c-1.004,2.024-3.448,3.357-5.891,3.357c-3.521,0-6.608-3.042-6.608-6.774
	c-2.292-0.583-3.161-1.544-3.161-2.741c0-1.185,0.87-2.16,2.024-2.16c1.137-4.225,4.211-7.296,7.746-7.296
	c2.667,0,4.961,1.723,5.891,4.106h15.088l-0.181-19.931h-14.923c-1.004,1.858-3.448,3.282-5.89,3.282
	c-3.52,0-6.606-2.965-6.606-6.624c-2.293-0.671-3.162-1.691-3.162-2.742c0-1.333,0.868-2.307,2.006-2.307
	c1.156-4.15,4.227-7.208,7.762-7.208c2.667,0,4.96,1.634,5.89,4.075h14.833l-0.09-12.316l4.032-2.788
	c-23.254-5.723-39.124-17.47-51.112-38.75v148.679c11.448-20.305,26.478-32.129,47.65-38.197L197.763,207.802z M180.185,167.989
	c0-1.934-1.573-3.611-3.506-3.611c-1.933,0-3.012,1.678-3.012,3.611H180.185z M180.185,172.59l-6.534-0.239
	c0,2.247,1.082,3.789,3.013,3.789C178.627,176.155,180.185,174.611,180.185,172.59z M173.651,199.485h6.534
	c0-2.095-1.573-3.625-3.506-3.625C174.745,195.86,173.651,197.402,173.651,199.485z"/>
<path fill="#171717" d="M180.185,172.59l-6.534-0.239c0,2.247,1.082,3.789,3.027,3.789
	C178.627,176.155,180.185,174.611,180.185,172.59 M180.185,167.989c0-1.934-1.573-3.611-3.506-3.611
	c-1.946,0-3.027,1.678-3.027,3.611H180.185z M282.681,147.924c3.671-30.405,15.163-50.376,39.229-64.704H178.118
	c23.96,14.312,35.424,34.24,39.77,64.585c4.613-0.87,9.798-2.129,16.124-2.129c7.939,0,13.454,2.71,15.957,7.656
	c1.964-4.946,8.062-7.656,16.033-7.656C272.595,145.677,277.931,147.054,282.681,147.924z M302.249,221.483
	c21.175,6.068,36.187,17.893,47.592,38.196V111.001c-12.064,21.579-28.232,33.326-50.918,38.977l3.792,2.561v12.257h19.043
	c4.933,0,8.182,0.973,8.182,5.125c0,4.899-2.516,6.457-7.116,6.457H302.7v19.945h19.045c4.93,0,8.179,0.885,8.179,5.125
	c0,4.809-2.516,6.382-7.115,6.382h-20.124v13.668h-0.436V221.483z M214.711,222.323c-35.229,5.423-56.419,20.736-68.511,58.004
	V90.429c12.033,37.116,33.236,52.055,68.194,57.66c-6.187-35.453-20.796-56.746-56.19-69.167H341.72
	c-35.306,12.405-49.975,33.699-55.442,69.107c34.688-5.664,55.681-20.634,67.656-57.601v189.898
	c-12.018-37.072-33.102-52.415-67.957-57.914c5.229,36.62,19.688,58.769,55.743,71.296H158.142
	C194.272,281.166,208.746,258.99,214.711,222.323z M221.002,221.483l-2.757,0.345c-4.029,31.886-15.493,52.881-40.144,67.684
	h143.792c-24.725-14.79-36.173-35.77-39.574-67.61l-3.251-0.419h-13.366c-6.699,0-5.891,3.342-15.748,3.342
	c-9.833,0-8.978-3.342-15.511-3.342H221.002z M197.763,207.802h-15.179c-1.019,2.024-3.462,3.357-5.89,3.357
	c-3.537,0-6.624-3.042-6.624-6.774c-2.292-0.583-3.161-1.544-3.161-2.741c0-1.185,0.87-2.16,2.024-2.16
	c1.137-4.225,4.211-7.296,7.761-7.296c2.651,0,4.946,1.723,5.89,4.106h15.074l-0.181-19.931h-14.908
	c-1.02,1.858-3.463,3.282-5.891,3.282c-3.534,0-6.621-2.965-6.621-6.624c-2.293-0.671-3.162-1.691-3.162-2.742
	c0-1.333,0.868-2.307,2.006-2.307c1.156-4.15,4.227-7.208,7.777-7.208c2.652,0,4.946,1.634,5.891,4.075h14.817l-0.09-12.316
	l4.032-2.788c-23.254-5.723-39.124-17.47-51.112-38.75v148.679c11.464-20.305,26.478-32.129,47.65-38.197L197.763,207.802z
	 M180.185,203.802h-6.534c0,2.248,1.082,3.925,3.027,3.925c1.934,0,3.506-1.678,3.506-3.686V203.802z M173.651,199.485h6.534
	c0-2.095-1.573-3.625-3.506-3.625C174.745,195.86,173.651,197.402,173.651,199.485z"/>
<path fill="#FFFFFF" d="M290.636,210.259c0,0-10.849,0-20.544,0c-9.783,0-11.357,0.361-18.132,3.177c0,0,0-50.137,0-53.93
	c0-5.856,6.055-9.44,14.025-9.44c11.793,0,18.119,3.866,24.638,2.607v57.585"/>
<path fill="#FFFFFF" d="M247.872,213.436c-6.745-2.667-8.272-3.177-17.967-3.177c-9.621,0-20.68,0-20.68,0v-57.6
	c6.668,1.273,12.993-2.593,24.771-2.593c7.912,0,13.861,3.568,13.861,9.44C247.872,163.314,247.872,213.436,247.872,213.436"/>
<path fill="#FFFFFF" d="M249.968,220.958c9.859,0,9.052-3.715,15.601-3.715h33.205v-61.781l-3.882-2.863v61.303
	c-6.967,0-18.776,0-26.957,0c-11.854,0-7.911,3.715-17.967,3.715c-8.841,0-5.394-3.715-17.89-3.715c-8.197,0-19.916,0-26.957,0
	v-61.303l-3.957,2.863v61.781h33.28C240.978,217.243,240.108,220.958,249.968,220.958"/>
</svg>
