<?xml version="1.0" encoding="utf-8"?>
<!-- Generator: Adobe Illustrator 19.2.1, SVG Export Plug-In . SVG Version: 6.00 Build 0)  -->
<svg version="1.1" id="layer" xmlns="http://www.w3.org/2000/svg" xmlns:xlink="http://www.w3.org/1999/xlink" x="0px" y="0px"
	 viewBox="0 0 652 652" style="enable-background:new 0 0 652 652;" xml:space="preserve">
<style type="text/css">
	.st0{fill:#FF5800;}
	.st1{fill:url(#SVGID_1_);}
	.st2{fill:url(#SVGID_2_);}
	.st3{fill:url(#SVGID_3_);}
	.st4{fill:url(#SVGID_4_);}
</style>
<path class="st0" d="M234.7,311.4c-3.4,0-6.8,0.3-10.2,1c-2.7,0.4-5.4,1.3-7.9,2.6l1,9.8c2.6-0.8,5.2-1.4,7.9-1.8
	c2.3-0.4,4.7-0.5,7-0.5c9,0,13.4,3.4,13.4,10.3v2.3c-2.9-0.5-5.9-0.7-8.8-0.6c-7.8,0-14,1.7-18.6,5.2c-4.5,3.4-7,8.8-6.8,14.4
	c0,12.6,8.6,18.9,25.8,18.9c7.4-0.1,14.7-1.1,21.8-3.2v-36.1C259.5,318.9,251.2,311.4,234.7,311.4z M246.1,361.8
	c-2.8,0.7-5.7,1.1-8.6,1c-8.1,0-12.2-2.9-12.2-8.8c0-6.2,4.5-9.2,13.4-9.2c2.5-0.1,4.9,0.1,7.3,0.6V361.8z M265.6,312.9h14.9
	l14.5,45.3l14.7-45.3h14.3l-22.2,58.8h-13.9L265.6,312.9z M350,311.4c-3.4,0-6.8,0.3-10.2,1c-2.7,0.4-5.4,1.3-7.9,2.6l1,9.9
	c2.6-0.8,5.2-1.4,7.9-1.8c2.3-0.4,4.7-0.5,7-0.5c9,0,13.4,3.4,13.4,10.3v2.3c-2.9-0.5-5.9-0.7-8.8-0.6c-7.8,0-14,1.7-18.6,5.2
	c-4.5,3.4-7,8.8-6.8,14.4c0,12.6,8.6,18.9,25.8,18.9c7.4-0.1,14.7-1.1,21.8-3.2v-36.1C374.7,318.9,366.5,311.4,350,311.4z
	 M361.3,361.8c-2.8,0.7-5.7,1.1-8.6,1c-8.1,0-12.2-2.9-12.2-8.8c0-6.2,4.5-9.2,13.4-9.2c2.5-0.1,4.9,0.1,7.3,0.6V361.8z M426.7,337
	c0-5.3-1-9-3-11c-2-2-5.6-3-10.8-3c-1.5,0-3,0.2-4.5,0.4c-1.7,0.3-3.3,0.6-4.9,1v47.2h-13.6v-55.8c3.9-1.5,7.9-2.6,11.9-3.3
	c4.3-0.8,8.6-1.2,13-1.2c17.1,0,25.6,7.7,25.6,23.1v37.1h-13.6V337z M473.9,311.4c-3.4,0-6.8,0.3-10.2,1c-2.7,0.4-5.4,1.3-7.9,2.6
	l1,9.9c2.6-0.8,5.2-1.4,7.9-1.8c2.3-0.4,4.7-0.5,7-0.5c9,0,13.4,3.4,13.4,10.3v2.3c-2.9-0.5-5.9-0.7-8.8-0.6c-7.8,0-14,1.7-18.6,5.2
	c-4.5,3.4-7,8.8-6.8,14.4c0,12.6,8.6,18.9,25.8,18.9c7.4-0.1,14.7-1.1,21.8-3.2v-36.1C498.7,318.9,490.4,311.4,473.9,311.4z
	 M485.2,361.8c-2.8,0.7-5.7,1.1-8.6,1c-8.1,0-12.2-2.9-12.2-8.8c0-6.2,4.5-9.2,13.4-9.2c2.5-0.1,4.9,0.1,7.3,0.6V361.8z
	 M549.4,290.2v22.5c-3.2-0.9-6.5-1.3-9.9-1.2c-9,0-16.2,2.9-21.8,8.7c-5.6,5.8-8.4,13.4-8.4,22.8c0,9.8,2.7,17.3,8.2,22.5
	c5.5,5.2,13.4,7.8,23.9,7.8c7.3-0.1,14.6-1.2,21.6-3.2v-79.8H549.4z M549.4,360.9c-2.7,0.7-5.6,1-8.4,0.8
	c-11.6,0-17.4-6.4-17.4-19.1c0-6.4,1.5-11.4,4.5-14.9c3-3.5,7.2-5.3,12.7-5.2c2.9-0.1,5.9,0.4,8.6,1.5L549.4,360.9z M626.5,339.1
	c0-8.5-2.2-15.3-6.7-20.3c-4.5-5-10.6-7.5-18.3-7.5c-8.4,0-15.1,2.8-20,8.4c-5,5.6-7.5,13.2-7.5,22.8s2.7,17.1,8,22.5
	c5.3,5.3,12.9,8,22.7,8c6.3,0,12.5-1.1,18.3-3.3l-1.5-10.3c-5.1,1.7-10.4,2.6-15.7,2.5c-11.5,0-17.4-5.2-17.7-15.5h38.4V339.1z
	 M588.1,336.2c0.2-3.9,1.6-7.5,4.1-10.5c2.3-2.5,5.5-3.9,8.9-3.8c3.4-0.1,6.6,1.3,8.8,3.8c2.2,2.5,3.4,6,3.4,10.5H588.1z"/>
<linearGradient id="SVGID_1_" gradientUnits="userSpaceOnUse" x1="24.3874" y1="325.5273" x2="162.2116" y2="362.4553" gradientTransform="matrix(1 0 0 -1 0 652)">
	<stop  offset="0.2" style="stop-color:#FF5800"/>
	<stop  offset="0.24" style="stop-color:#FF7000"/>
	<stop  offset="0.32" style="stop-color:#FF9500"/>
	<stop  offset="0.4" style="stop-color:#FFB200"/>
	<stop  offset="0.47" style="stop-color:#FFC600"/>
	<stop  offset="0.55" style="stop-color:#FFD300"/>
	<stop  offset="0.62" style="stop-color:#FFD700"/>
	<stop  offset="0.66" style="stop-color:#FFCE00"/>
	<stop  offset="0.72" style="stop-color:#FFB600"/>
	<stop  offset="0.81" style="stop-color:#FF8E00"/>
	<stop  offset="0.9" style="stop-color:#FF5800"/>
</linearGradient>
<path class="st1" d="M65.9,287.8c-4.6,9-8.4,16.2-11.3,21.6c-2.4,4.5-5,8.9-7.9,13.1c-2.2,3.1-4.7,5.9-7.7,8.2
	c-3.3,2.5-6.7,4.9-10.3,7l-2.3-3.6c2.6-1.9,5-3.8,7.1-5.7c2.5-2.4,4.8-5,6.7-7.9c3-4.3,5.8-8.9,8.4-13.5c3.2-5.6,7.1-13.2,11.7-22.8
	c2.8-5.9,5.9-11.6,9.5-17c2.5-3.8,5.4-7.3,8.7-10.4c2.4-2.2,5.1-4,8.1-5.2c2.5-1,5.2-1.4,7.9-1.4c2.6,0.1,5.2,0.8,7.6,1.9
	c3.2,1.7,6,4.1,8.2,6.9c3.8,4.6,7.1,9.5,10,14.7c3.7,6.4,8,14.8,13.1,25.3c2.7,5.8,5.8,11.4,9.2,16.8c2.5,4.1,5.5,7.8,8.9,11.2
	c2.9,2.9,6.3,5.3,10,7.1c4,2,8.1,3.6,12.4,4.8l2.9,4.9c-5.1-0.5-10.2-1.6-15-3.3c-4.5-1.6-8.7-4.1-12.3-7.2
	c-4.2-3.7-7.9-7.9-11-12.5c-4.1-6.1-7.8-12.6-11-19.2c-4.7-9.3-8.6-17-11.8-22.8c-2.5-4.7-5.4-9.3-8.6-13.6
	c-1.8-2.6-4.1-4.8-6.7-6.6c-1.8-1.1-3.9-1.7-6-1.8c-2.2-0.1-4.3,0.4-6.3,1.3c-2.5,1.2-4.6,3-6.4,5.1c-2.7,3-5.1,6.2-7.2,9.6
	C71.7,276.8,68.9,281.8,65.9,287.8z"/>
<linearGradient id="SVGID_2_" gradientUnits="userSpaceOnUse" x1="29.296" y1="312.6653" x2="173.4696" y2="312.6653" gradientTransform="matrix(1 0 0 -1 0 652)">
	<stop  offset="9.000000e-002" style="stop-color:#FF5800"/>
	<stop  offset="0.19" style="stop-color:#FF7907"/>
	<stop  offset="0.31" style="stop-color:#FF990E"/>
	<stop  offset="0.4" style="stop-color:#FFAD12"/>
	<stop  offset="0.47" style="stop-color:#FFB414"/>
	<stop  offset="0.53" style="stop-color:#FFAD12"/>
	<stop  offset="0.62" style="stop-color:#FF980E"/>
	<stop  offset="0.73" style="stop-color:#FF7707"/>
	<stop  offset="0.82" style="stop-color:#FF5800"/>
</linearGradient>
<path class="st2" d="M134.8,346.9c6.8,0.2,13.5-0.1,20.3-1c6-0.8,12-2.2,17.7-4.1l0.7,3.7c-9.2,5.9-22.2,8.5-38.9,8
	c-6.6-0.1-13.1-1-19.5-2.6c-5-1.3-9.9-3.1-14.6-5.3c-3.2-1.5-6.3-3-9.1-4.6c-2.9-1.6-5.8-3-8.9-4.4c-3-1.3-6-2.4-9.1-3.4
	c-3.2-0.9-6.6-1.5-10-1.6c-5.3-0.2-10.7,0.2-15.9,1.2c-5.4,1-10.7,2.4-15.9,4.4l-2.3-2.7l4.3-2.1c4.5-2.5,9.3-4.4,14.3-5.6
	c5.1-1.3,10.4-1.8,15.7-1.7c3.8,0.1,7.5,0.6,11.2,1.6c3.3,0.9,6.6,2.1,9.7,3.5c3,1.4,6.1,2.9,9.1,4.6c3,1.7,6.2,3.2,9.5,4.7
	c4.4,2,8.9,3.6,13.6,4.9C122.6,346,128.7,346.9,134.8,346.9z"/>
<linearGradient id="SVGID_3_" gradientUnits="userSpaceOnUse" x1="29.9204" y1="333.9913" x2="177.747" y2="302.5769" gradientTransform="matrix(1 0 0 -1 0 652)">
	<stop  offset="0.5" style="stop-color:#FF5800"/>
	<stop  offset="0.64" style="stop-color:#CE056A;stop-opacity:0.99"/>
	<stop  offset="0.76" style="stop-color:#CF0768;stop-opacity:0.99"/>
	<stop  offset="0.81" style="stop-color:#D20D60;stop-opacity:0.99"/>
	<stop  offset="0.85" style="stop-color:#D81753;stop-opacity:0.99"/>
	<stop  offset="0.88" style="stop-color:#E12541;stop-opacity:0.99"/>
	<stop  offset="0.91" style="stop-color:#EC3829"/>
	<stop  offset="0.94" style="stop-color:#F94E0C"/>
	<stop  offset="0.95" style="stop-color:#FF5800"/>
</linearGradient>
<path class="st3" d="M144.6,297.4c-2.4-0.1-4.8,0.5-6.9,1.7c-2.9,1.8-5.5,4.1-7.6,6.7c-3.6,4.3-7,8.8-10.1,13.5
	c-3.8,5.7-8.6,13.2-14.3,22.3c-7.7,12.4-14.9,21.4-21.5,26.9c-6.6,5.5-13.5,8.2-20.8,7.9c-7.7-0.3-14.9-4.1-21.6-11.5
	c-6.8-7.4-11.9-17.7-15.3-30.8l6.4,1.2c3.5,10.4,8,18.7,13.5,24.9c5.4,6.2,11.2,9.4,17.3,9.6c5.7,0.2,11.4-2.2,17.1-7.1
	c5.8-4.9,12.2-13,19.1-24.2c6.3-10,11.6-18.2,15.8-24.5c3.4-5.1,7.1-10,11.2-14.6c2.5-2.9,5.5-5.3,8.9-7c2.8-1.2,5.9-1.8,8.9-1.6
	c7.3,0.3,13.7,4.6,19.4,13c5.6,8.4,10.6,21.3,15,38.6l-7-2.9c-4.4-14.3-8.8-24.9-13.2-31.8C154.5,301.1,149.7,297.6,144.6,297.4z"/>
<linearGradient id="SVGID_4_" gradientUnits="userSpaceOnUse" x1="35.9628" y1="277.9754" x2="180.7841" y2="298.3223" gradientTransform="matrix(1 0 0 -1 0 652)">
	<stop  offset="0" style="stop-color:#FF5800"/>
	<stop  offset="6.000000e-002" style="stop-color:#FC5400"/>
	<stop  offset="0.13" style="stop-color:#F54700"/>
	<stop  offset="0.19" style="stop-color:#E83300"/>
	<stop  offset="0.26" style="stop-color:#D61600"/>
	<stop  offset="0.3" style="stop-color:#C80000"/>
	<stop  offset="0.48" style="stop-color:#C80000"/>
	<stop  offset="0.91" style="stop-color:#FF5800"/>
</linearGradient>
<path class="st4" d="M120,395.1c3.6,0,7.2-1.2,10-3.4c3.3-2.4,7.5-7,12.6-13.6c4-5.1,7.2-9.4,9.7-12.7s4.9-6.3,7.2-8.9
	c2.2-2.6,4.6-5,6.9-7.4c2.4-2.3,5.3-5.2,8.8-8.6l4,2.2c-3.2,3.7-5.9,6.8-8.1,9.3c-2.2,2.6-4.3,5.2-6.4,7.9c-2.1,2.7-4.4,5.7-7,9.1
	s-5.8,7.7-9.8,12.9c-5.4,7.2-10.2,12.4-14.4,15.4c-4,3-8.8,4.5-13.8,4.3c-2.5-0.1-5-0.5-7.3-1.4c-2.8-1.2-5.3-2.8-7.6-4.7
	c-3.6-3-7-6.3-10.2-9.9c-3.9-4.3-8.8-9.8-14.8-16.6c-4.5-5.2-8.6-9.5-12.3-13c-3.3-3.2-7-6.1-10.9-8.5c-3.6-2.1-7.4-3.8-11.4-5.1
	c-4.6-1.3-9.3-2.2-14-2.7l1.6-4.8c4.9,0.4,9.8,1.1,14.7,2.1c4.3,0.9,8.4,2.5,12.2,4.7c4.2,2.4,8.1,5.3,11.6,8.6
	c4.6,4.3,9,8.9,13.1,13.8c6,6.8,10.8,12.3,14.6,16.3c3.8,4,6.9,7.2,9.4,9.3c1.9,1.8,4,3.2,6.3,4.3C116.3,394.6,118.1,395,120,395.1z
	"/>
</svg>
